name ./resultDataOpenSim/trcMotMarkerGrf/sub10/grf-02-08.mot
datacolumns 19
datarows 20
range 0.47200000 0.54800000
endheader

                time	     ground_force_vx	     ground_force_vy	     ground_force_vz	     ground_force_px	     ground_force_py	     ground_force_pz	   l_ground_force_vx	   l_ground_force_vy	   l_ground_force_vz	   l_ground_force_px	   l_ground_force_py	   l_ground_force_pz	     ground_torque_x	     ground_torque_y	     ground_torque_z	   l_ground_torque_x	   l_ground_torque_y	   l_ground_torque_z	
          0.47200000	          9.87371725	        421.95464549	        -20.95805680	         -0.77514214	          0.00000000	          0.07243175	          0.00000000	          0.00000000	          0.00000000	          0.00000000	          0.00000000	          0.00000000	          0.00000000	          3.51539242	          0.00000000	          0.00000000	          0.00000000	          0.00000000	
          0.47600000	         11.64249089	        423.34944325	        -22.25536080	         -0.77407753	          0.00000000	          0.07259950	          0.00000000	          0.00000000	          0.00000000	          0.00000000	          0.00000000	          0.00000000	          0.00000000	          3.63839787	          0.00000000	          0.00000000	          0.00000000	          0.00000000	
          0.48000000	         14.00943080	        425.46217378	        -23.33651288	         -0.77329146	          0.00000000	          0.07277827	          0.00000000	          0.00000000	          0.00000000	          0.00000000	          0.00000000	          0.00000000	          0.00000000	          3.77315643	          0.00000000	          0.00000000	          0.00000000	          0.00000000	
          0.48400000	         16.90091123	        428.32196704	        -24.18886441	         -0.77275595	          0.00000000	          0.07296052	          0.00000000	          0.00000000	          0.00000000	          0.00000000	          0.00000000	          0.00000000	          0.00000000	          3.92101821	          0.00000000	          0.00000000	          0.00000000	          0.00000000	
          0.48800000	         20.15292194	        431.96244617	        -24.86046797	         -0.77240945	          0.00000000	          0.07314615	          0.00000000	          0.00000000	          0.00000000	          0.00000000	          0.00000000	          0.00000000	          0.00000000	          4.07979620	          0.00000000	          0.00000000	          0.00000000	          0.00000000	
          0.49200000	         23.55231654	        436.41977620	        -25.44596344	         -0.77216489	          0.00000000	          0.07334161	          0.00000000	          0.00000000	          0.00000000	          0.00000000	          0.00000000	          0.00000000	          0.00000000	          4.24447040	          0.00000000	          0.00000000	          0.00000000	          0.00000000	
          0.49600000	         26.88903702	        441.73127950	        -26.06128728	         -0.77192575	          0.00000000	          0.07354446	          0.00000000	          0.00000000	          0.00000000	          0.00000000	          0.00000000	          0.00000000	          0.00000000	          4.40820703	          0.00000000	          0.00000000	          0.00000000	          0.00000000	
          0.50000000	         30.00536415	        447.92531829	        -26.81569967	         -0.77161135	          0.00000000	          0.07374900	          0.00000000	          0.00000000	          0.00000000	          0.00000000	          0.00000000	          0.00000000	          0.00000000	          4.56360158	          0.00000000	          0.00000000	          0.00000000	          0.00000000	
          0.50400000	         32.83094174	        455.00826870	        -27.78888600	         -0.77117354	          0.00000000	          0.07394891	          0.00000000	          0.00000000	          0.00000000	          0.00000000	          0.00000000	          0.00000000	          0.00000000	          4.70416480	          0.00000000	          0.00000000	          0.00000000	          0.00000000	
          0.50800000	         35.39512355	        462.96325395	        -29.01808154	         -0.77060994	          0.00000000	          0.07413928	          0.00000000	          0.00000000	          0.00000000	          0.00000000	          0.00000000	          0.00000000	          0.00000000	          4.82590665	          0.00000000	          0.00000000	          0.00000000	          0.00000000	
          0.51200000	         37.81046077	        471.76426242	        -30.49542900	         -0.76993757	          0.00000000	          0.07431802	          0.00000000	          0.00000000	          0.00000000	          0.00000000	          0.00000000	          0.00000000	          0.00000000	          4.92856337	          0.00000000	          0.00000000	          0.00000000	          0.00000000	
          0.51600000	         40.23160221	        481.38510496	        -32.17369696	         -0.76919752	          0.00000000	          0.07448123	          0.00000000	          0.00000000	          0.00000000	          0.00000000	          0.00000000	          0.00000000	          0.00000000	          5.01589319	          0.00000000	          0.00000000	          0.00000000	          0.00000000	
          0.52000000	         42.80673835	        491.78407013	        -33.97884428	         -0.76842777	          0.00000000	          0.07462359	          0.00000000	          0.00000000	          0.00000000	          0.00000000	          0.00000000	          0.00000000	          0.00000000	          5.09472579	          0.00000000	          0.00000000	          0.00000000	          0.00000000	
          0.52400000	         45.63966490	        502.88578392	        -35.82771221	         -0.76764705	          0.00000000	          0.07474483	          0.00000000	          0.00000000	          0.00000000	          0.00000000	          0.00000000	          0.00000000	          0.00000000	          5.17296602	          0.00000000	          0.00000000	          0.00000000	          0.00000000	
          0.52800000	         48.76930977	        514.59118775	        -37.64868520	         -0.76685658	          0.00000000	          0.07484810	          0.00000000	          0.00000000	          0.00000000	          0.00000000	          0.00000000	          0.00000000	          0.00000000	          5.25719155	          0.00000000	          0.00000000	          0.00000000	          0.00000000	
          0.53200000	         52.16512624	        526.80799144	        -39.40190470	         -0.76605158	          0.00000000	          0.07494113	          0.00000000	          0.00000000	          0.00000000	          0.00000000	          0.00000000	          0.00000000	          0.00000000	          5.35058222	          0.00000000	          0.00000000	          0.00000000	          0.00000000	
          0.53600000	         55.73716998	        539.47383117	        -41.09268051	         -0.76522153	          0.00000000	          0.07503287	          0.00000000	          0.00000000	          0.00000000	          0.00000000	          0.00000000	          0.00000000	          0.00000000	          5.45168176	          0.00000000	          0.00000000	          0.00000000	          0.00000000	
          0.54000000	         59.35989099	        552.56371733	        -42.77256710	         -0.76435200	          0.00000000	          0.07513303	          0.00000000	          0.00000000	          0.00000000	          0.00000000	          0.00000000	          0.00000000	          0.00000000	          5.55415466	          0.00000000	          0.00000000	          0.00000000	          0.00000000	
          0.54400000	         62.90440319	        566.08592972	        -44.52754711	         -0.76343258	          0.00000000	          0.07524494	          0.00000000	          0.00000000	          0.00000000	          0.00000000	          0.00000000	          0.00000000	          0.00000000	          5.64749990	          0.00000000	          0.00000000	          0.00000000	          0.00000000	
          0.54800000	         66.27036552	        580.06488122	        -46.45610393	         -0.76245935	          0.00000000	          0.07536353	          0.00000000	          0.00000000	          0.00000000	          0.00000000	          0.00000000	          0.00000000	          0.00000000	          5.71867427	          0.00000000	          0.00000000	          0.00000000	          0.00000000	
